<svg width="636" height="487" viewBox="0 0 636 487" fill="none" xmlns="http://www.w3.org/2000/svg">
<g opacity="0.9">
<path d="M557.551 408.721L67.68 394.752C44.8821 394.096 26.1351 376.753 23.8742 354.159L0.22844 121.663C-2.40933 95.3202 18.1276 72.3519 44.6937 71.9769L589.958 64.477C617.466 64.102 639.04 88.0078 635.648 115.195L603.901 369.159C600.98 392.221 580.914 409.377 557.551 408.721Z" fill="#EAF9F3"/>
<mask id="mask0_23_2683" style="mask-type:alpha" maskUnits="userSpaceOnUse" x="0" y="64" width="636" height="345">
<path d="M557.551 408.721L67.68 394.752C44.8821 394.096 26.1351 376.753 23.8742 354.159L0.22844 121.663C-2.40933 95.3202 18.1276 72.3519 44.6937 71.9769L589.958 64.477C617.466 64.102 639.04 88.0078 635.648 115.195L603.901 369.159C600.98 392.221 580.914 409.377 557.551 408.721Z" fill="#EAF9F3"/>
</mask>
<g mask="url(#mask0_23_2683)">
<path d="M157.741 450.906H-233.685C-241.505 450.906 -247.816 444.625 -247.816 436.843V215.879C-247.816 208.098 -241.505 201.816 -233.685 201.816H157.741C165.56 201.816 171.872 208.098 171.872 215.879V436.843C171.872 444.625 165.56 450.906 157.741 450.906Z" stroke="#B8D8C7" stroke-width="1.8" stroke-miterlimit="10" stroke-linecap="round" stroke-linejoin="round"/>
<path d="M675.026 436.095H280.208C272.389 436.095 266.077 429.814 266.077 422.033V99.2576C266.077 91.4765 272.389 85.1953 280.208 85.1953H675.026C682.845 85.1953 689.156 91.4765 689.156 99.2576V422.033C689.156 429.814 682.845 436.095 675.026 436.095Z" stroke="#B8D8C7" stroke-width="1.8" stroke-miterlimit="10" stroke-linecap="round" stroke-linejoin="round"/>
<path d="M63.911 135.914H-20.7803V127.57H63.911C64.853 127.57 65.6067 128.32 65.6067 129.258V134.133C65.6067 135.164 64.853 135.914 63.911 135.914Z" stroke="#B8D8C7" stroke-width="1.8" stroke-miterlimit="10" stroke-linecap="round" stroke-linejoin="round"/>
<path d="M48.5558 127.57H29.432C27.3594 127.57 25.6637 126.07 25.3811 124.007L23.8738 110.508C23.5912 108.164 25.4753 106.008 27.9247 106.008H50.0631C52.5125 106.008 54.3024 108.07 54.1139 110.508L52.6067 124.007C52.324 125.976 50.6283 127.57 48.5558 127.57Z" stroke="#B8D8C7" stroke-width="1.8" stroke-miterlimit="10" stroke-linecap="round" stroke-linejoin="round"/>
<path d="M36.6854 106.008C36.6854 106.008 29.1489 105.258 27.6416 95.1327C27.6416 95.1327 34.4244 97.1014 36.5912 101.883C36.5912 101.883 37.5332 91.1953 42.6204 90.1641C42.6204 90.1641 44.8813 98.1327 41.3015 102.07C41.3015 102.07 44.0335 97.5702 51.0047 97.6639C51.0047 97.6639 49.2148 104.039 42.3377 105.914" fill="#B8D8C7"/>
<path d="M154.726 248.503H69.7525C67.5858 248.503 65.7959 246.722 65.7959 244.566V218.879C65.7959 216.723 67.5858 214.941 69.7525 214.941H154.726C156.893 214.941 158.683 216.723 158.683 218.879V244.566C158.777 246.722 156.987 248.503 154.726 248.503Z" stroke="#B8D8C7" stroke-width="1.8" stroke-miterlimit="10" stroke-linecap="round" stroke-linejoin="round"/>
<path d="M122.037 223.941H102.442C101.689 223.941 101.029 223.285 101.029 222.535C101.029 221.785 101.689 221.129 102.442 221.129H122.037C122.791 221.129 123.45 221.785 123.45 222.535C123.45 223.285 122.791 223.941 122.037 223.941Z" fill="#B8D8C7"/>
<path d="M154.726 291.441H69.7525C67.5858 291.441 65.7959 289.66 65.7959 287.503V261.816C65.7959 259.66 67.5858 257.879 69.7525 257.879H154.726C156.893 257.879 158.683 259.66 158.683 261.816V287.503C158.777 289.66 156.987 291.441 154.726 291.441Z" stroke="#B8D8C7" stroke-width="1.8" stroke-miterlimit="10" stroke-linecap="round" stroke-linejoin="round"/>
<path d="M122.037 266.879H102.442C101.689 266.879 101.029 266.223 101.029 265.473C101.029 264.723 101.689 264.066 102.442 264.066H122.037C122.791 264.066 123.45 264.723 123.45 265.473C123.45 266.316 122.791 266.879 122.037 266.879Z" fill="#B8D8C7"/>
<path d="M591.089 321.722H506.115C503.948 321.722 502.158 319.941 502.158 317.785V292.098C502.158 289.941 503.948 288.16 506.115 288.16H591.089C593.255 288.16 595.045 289.941 595.045 292.098V317.785C595.14 319.941 593.35 321.722 591.089 321.722Z" stroke="#B8D8C7" stroke-width="1.8" stroke-miterlimit="10" stroke-linecap="round" stroke-linejoin="round"/>
<path d="M558.4 297.254H538.805C538.051 297.254 537.392 296.598 537.392 295.848C537.392 295.098 538.051 294.441 538.805 294.441H558.4C559.153 294.441 559.813 295.098 559.813 295.848C559.813 296.598 559.153 297.254 558.4 297.254Z" fill="#B8D8C7"/>
<path d="M481.998 321.722H397.024C394.857 321.722 393.067 319.941 393.067 317.785V292.098C393.067 289.941 394.857 288.16 397.024 288.16H481.998C484.165 288.16 485.955 289.941 485.955 292.098V317.785C485.955 319.941 484.165 321.722 481.998 321.722Z" stroke="#B8D8C7" stroke-width="1.8" stroke-miterlimit="10" stroke-linecap="round" stroke-linejoin="round"/>
<path d="M449.309 297.254H429.714C428.96 297.254 428.301 296.598 428.301 295.848C428.301 295.098 428.96 294.441 429.714 294.441H449.309C450.062 294.441 450.722 295.098 450.722 295.848C450.722 296.598 450.062 297.254 449.309 297.254Z" fill="#B8D8C7"/>
<path d="M46.3895 248.503H-38.5844C-40.7511 248.503 -42.541 246.722 -42.541 244.566V218.879C-42.541 216.723 -40.7511 214.941 -38.5844 214.941H46.3895C48.5562 214.941 50.3461 216.723 50.3461 218.879V244.566C50.4403 246.722 48.6504 248.503 46.3895 248.503Z" stroke="#B8D8C7" stroke-width="1.8" stroke-miterlimit="10" stroke-linecap="round" stroke-linejoin="round"/>
<path d="M13.7003 223.941H-5.89453C-6.64817 223.941 -7.30762 223.285 -7.30762 222.535C-7.30762 221.785 -6.64817 221.129 -5.89453 221.129H13.7003C14.454 221.129 15.1134 221.785 15.1134 222.535C15.1134 223.285 14.5482 223.941 13.7003 223.941Z" fill="#B8D8C7"/>
<path d="M46.3895 291.441H-38.5844C-40.7511 291.441 -42.541 289.66 -42.541 287.503V261.816C-42.541 259.66 -40.7511 257.879 -38.5844 257.879H46.3895C48.5562 257.879 50.3461 259.66 50.3461 261.816V287.503C50.4403 289.66 48.6504 291.441 46.3895 291.441Z" stroke="#B8D8C7" stroke-width="1.8" stroke-miterlimit="10" stroke-linecap="round" stroke-linejoin="round"/>
<path d="M13.7003 266.879H-5.89453C-6.64817 266.879 -7.30762 266.223 -7.30762 265.473C-7.30762 264.723 -6.64817 264.066 -5.89453 264.066H13.7003C14.454 264.066 15.1134 264.723 15.1134 265.473C15.1134 266.316 14.5482 266.879 13.7003 266.879Z" fill="#B8D8C7"/>
<path d="M714.781 183.444H286.143C283.788 183.444 281.81 181.475 281.81 179.131V104.414C281.81 102.07 283.788 100.102 286.143 100.102H714.781C717.136 100.102 719.114 102.07 719.114 104.414V179.131C719.114 181.475 717.23 183.444 714.781 183.444Z" stroke="#B8D8C7" stroke-width="1.8" stroke-miterlimit="10" stroke-linecap="round" stroke-linejoin="round"/>
<path d="M714.781 276.163H286.143C283.788 276.163 281.81 274.194 281.81 271.85V197.133C281.81 194.789 283.788 192.82 286.143 192.82H714.781C717.136 192.82 719.114 194.789 719.114 197.133V271.85C719.114 274.288 717.23 276.163 714.781 276.163Z" stroke="#B8D8C7" stroke-width="1.8" stroke-miterlimit="10" stroke-linecap="round" stroke-linejoin="round"/>
<path d="M320.058 136.289H310.731V183.444H320.058V136.289Z" stroke="#B8D8C7" stroke-width="1.8" stroke-miterlimit="10" stroke-linecap="round" stroke-linejoin="round"/>
<path d="M329.666 149.133H319.963V183.445H329.666V149.133Z" stroke="#B8D8C7" stroke-width="1.8" stroke-miterlimit="10" stroke-linecap="round" stroke-linejoin="round"/>
<path d="M601.074 228.91H591.748V276.066H601.074V228.91Z" stroke="#B8D8C7" stroke-width="1.8" stroke-miterlimit="10" stroke-linecap="round" stroke-linejoin="round"/>
<path d="M610.777 241.754H601.074V276.066H610.777V241.754Z" stroke="#B8D8C7" stroke-width="1.8" stroke-miterlimit="10" stroke-linecap="round" stroke-linejoin="round"/>
<path d="M582.139 228.91H572.812V276.066H582.139V228.91Z" stroke="#B8D8C7" stroke-width="1.8" stroke-miterlimit="10" stroke-linecap="round" stroke-linejoin="round"/>
<path d="M572.945 230.666L564.052 227.871L549.784 272.839L558.678 275.633L572.945 230.666Z" stroke="#B8D8C7" stroke-width="1.8" stroke-miterlimit="10" stroke-linecap="round" stroke-linejoin="round"/>
<path d="M591.842 241.754H582.139V276.066H591.842V241.754Z" stroke="#B8D8C7" stroke-width="1.8" stroke-miterlimit="10" stroke-linecap="round" stroke-linejoin="round"/>
<path d="M475.309 136.289H465.982V183.444H475.309V136.289Z" stroke="#B8D8C7" stroke-width="1.8" stroke-miterlimit="10" stroke-linecap="round" stroke-linejoin="round"/>
<path d="M485.013 149.133H475.31V183.445H485.013V149.133Z" stroke="#B8D8C7" stroke-width="1.8" stroke-miterlimit="10" stroke-linecap="round" stroke-linejoin="round"/>
<path d="M383.176 136.289H373.85V183.444H383.176V136.289Z" stroke="#B8D8C7" stroke-width="1.8" stroke-miterlimit="10" stroke-linecap="round" stroke-linejoin="round"/>
<path d="M373.978 138.029L365.084 135.234L350.816 180.202L359.71 182.996L373.978 138.029Z" stroke="#B8D8C7" stroke-width="1.8" stroke-miterlimit="10" stroke-linecap="round" stroke-linejoin="round"/>
<path d="M392.879 149.133H383.176V183.445H392.879V149.133Z" stroke="#B8D8C7" stroke-width="1.8" stroke-miterlimit="10" stroke-linecap="round" stroke-linejoin="round"/>
<path d="M600.98 142.476L602.016 128.508C602.11 127.57 601.356 126.82 600.414 126.82H596.364H592.313C591.371 126.82 590.711 127.57 590.711 128.508L591.747 142.476C591.747 142.476 583.269 147.914 583.363 152.414C583.457 155.882 585.53 172.476 586.472 179.788C586.754 181.851 588.45 183.351 590.523 183.351H596.364H602.204C604.277 183.351 605.973 181.851 606.255 179.788C607.197 172.476 609.27 155.882 609.364 152.414C609.458 147.82 600.98 142.476 600.98 142.476Z" fill="#B8D8C7"/>
<path d="M563.392 142.476L564.428 128.508C564.522 127.57 563.769 126.82 562.827 126.82H558.776H554.725C553.783 126.82 553.123 127.57 553.123 128.508L554.16 142.476C554.16 142.476 545.681 147.914 545.775 152.414C545.869 155.882 547.942 172.476 548.884 179.788C549.167 181.851 550.862 183.351 552.935 183.351H558.776H564.616C566.689 183.351 568.385 181.851 568.667 179.788C569.609 172.476 571.682 155.882 571.776 152.414C571.87 147.82 563.392 142.476 563.392 142.476Z" fill="#B8D8C7"/>
<path d="M-1.18457 364.66H899.237" stroke="#B8D8C7" stroke-width="1.8" stroke-miterlimit="10" stroke-linecap="round" stroke-linejoin="round"/>
</g>
<path d="M81.623 374.223V487.002H89.2537L91.7031 374.223H81.623Z" fill="#B8D8C7"/>
<path d="M91.7031 374.223H81.623V386.504H91.4205L91.7031 374.223Z" fill="#6DAFA7"/>
<path d="M534.283 374.223V487.002H526.558L524.203 374.223H534.283Z" fill="#B8D8C7"/>
<path d="M524.203 374.223H534.283V386.504H524.486L524.203 374.223Z" fill="#6DAFA7"/>
<path d="M566.878 369.628H49.0273L104.138 345.629H511.673L566.878 369.628Z" fill="#FFE779"/>
<path d="M566.878 369.629H49.0273V376.848H566.878V369.629Z" fill="#B8D8C7"/>
<path d="M110.167 314.408L98.203 321.251C96.4131 322.283 94.0579 321.72 93.0217 319.845L58.7307 260.971C57.6944 259.19 58.2596 256.846 60.1438 255.815L72.1079 248.971C73.8978 247.94 76.253 248.503 77.2893 250.378L111.58 309.252C112.617 311.033 111.957 313.376 110.167 314.408Z" fill="#22272E"/>
<path d="M101.783 306.064C100.747 304.283 98.3917 303.627 96.6018 304.658C94.8119 305.689 94.1525 308.033 95.1887 309.814C96.225 311.595 98.5802 312.252 100.37 311.22C102.16 310.189 102.819 307.939 101.783 306.064Z" fill="#63737A"/>
<path d="M86.0508 296.687L94.812 291.625" stroke="#63737A" stroke-width="1.8" stroke-miterlimit="10" stroke-linecap="round" stroke-linejoin="round"/>
<path d="M83.6016 292.562L92.4569 287.5" stroke="#63737A" stroke-width="1.8" stroke-miterlimit="10" stroke-linecap="round" stroke-linejoin="round"/>
<path d="M128.254 274.191L120.529 306.722C120.247 307.66 124.768 310.003 130.798 312.066C136.733 314.128 141.914 315.066 142.197 314.222L156.422 283.941L128.254 274.191Z" fill="#FFE779"/>
<path d="M149.074 292.098L154.349 293.879C156.704 294.723 157.741 297.348 156.61 299.504L152.182 307.941C151.24 309.722 149.168 310.472 147.284 309.816L141.537 307.847" stroke="#FFE779" stroke-width="1.8" stroke-miterlimit="10" stroke-linecap="round" stroke-linejoin="round"/>
<path d="M156.422 284.034C156.045 285.159 149.356 283.941 141.632 281.222C133.812 278.503 127.877 275.41 128.254 274.191C128.631 273.066 135.32 274.285 143.045 277.003C150.864 279.722 156.799 282.816 156.422 284.034Z" fill="#6DAFA7"/>
<path d="M206.54 115.102L98.4857 143.602C94.529 144.633 90.6666 142.008 90.1956 137.977L76.7241 22.0104C76.4415 19.1979 78.7024 16.7604 81.5286 17.0417L191.373 24.6353C194.482 24.8228 197.025 27.1665 197.496 30.2602L209.743 110.134C210.214 112.29 208.707 114.54 206.54 115.102Z" fill="#63737A"/>
<path d="M211.533 115.477L102.348 144.258C98.3913 145.289 94.4346 142.57 93.9636 138.539L80.3979 21.3538C80.1153 18.5414 82.3762 16.1039 85.2966 16.2914L196.366 23.885C199.474 24.0725 202.112 26.4162 202.583 29.5099L215.018 110.227C215.207 112.665 213.794 114.821 211.533 115.477Z" fill="#22272E"/>
<path d="M126.088 38.5116L99.4273 38.1366C98.8621 38.1366 98.4853 37.7616 98.3911 37.1991L98.0143 34.1992C97.92 33.543 98.4853 32.9805 99.0505 32.9805L125.805 33.7305C126.37 33.7305 126.747 34.1055 126.841 34.6679L127.218 37.3866C127.218 37.9491 126.747 38.5116 126.088 38.5116Z" fill="#6DAFA7"/>
<path d="M99.71 48.4492L151.335 47.793" stroke="#63737A" stroke-width="1.8" stroke-miterlimit="10" stroke-linecap="round" stroke-linejoin="round"/>
<path d="M101.029 58.8555L133.719 57.543" stroke="#63737A" stroke-width="1.8" stroke-miterlimit="10" stroke-linecap="round" stroke-linejoin="round"/>
<path d="M113.276 122.98L110.167 123.636C109.507 123.824 108.848 123.355 108.754 122.605L105.645 96.6369C105.551 95.9807 106.022 95.4182 106.681 95.3244L109.79 94.8557C110.449 94.7619 111.015 95.2307 111.109 95.8869L114.312 121.668C114.218 122.324 113.841 122.886 113.276 122.98Z" fill="#FFE779"/>
<path d="M124.298 119.324L119.116 78.0744C119.022 77.4182 119.493 76.8557 120.153 76.7619L122.791 76.4807C123.45 76.3869 124.015 76.8557 124.015 77.5119L129.197 118.386C129.291 118.949 128.914 119.511 128.254 119.699L125.523 120.261C125.051 120.449 124.392 119.98 124.298 119.324Z" fill="#6DAFA7"/>
<path d="M138.711 116.23L136.733 101.043C136.639 100.387 137.11 99.8244 137.675 99.7307L139.936 99.3557C140.595 99.2619 141.16 99.7307 141.255 100.387L143.233 115.48C143.327 116.043 142.95 116.605 142.291 116.793L140.03 117.262C139.371 117.355 138.711 116.887 138.711 116.23Z" fill="#FFE779"/>
<path d="M155.292 113.981L153.313 114.356C152.654 114.543 151.995 114.074 151.9 113.418L150.77 105.262C150.676 104.606 151.147 104.043 151.712 103.949L153.69 103.574C154.35 103.481 155.009 103.949 155.009 104.606L156.14 112.762C156.234 113.324 155.857 113.887 155.292 113.981Z" fill="#F4C2C9"/>
<path d="M193.728 102.636L185.626 84.5427L192.597 68.5117C195.8 71.8867 198.155 76.9491 199.097 82.6677C200.134 90.8238 197.967 98.6049 193.728 102.636Z" fill="#6DAFA7"/>
<path d="M192.503 68.5107L185.532 84.5417L171.872 73.6669C173.85 68.1357 177.713 64.2921 182.517 64.0108C186.097 63.7296 189.677 65.417 192.503 68.5107Z" fill="#F4C2C9"/>
<path d="M193.728 102.636C192.221 104.042 190.525 104.98 188.641 105.355C180.727 107.042 172.531 98.605 170.836 86.5115C170.176 81.7303 170.647 77.2304 171.872 73.5742L185.532 84.449L193.728 102.636Z" fill="#FFE779"/>
<path d="M285.013 22.7583C289.535 31.4769 295.188 40.1018 298.579 44.9767C300.086 47.1329 303.007 47.6016 305.079 46.1017C309.318 43.1017 314.971 40.1018 318.928 38.133C321.283 36.9143 322.413 34.1019 321.377 31.6644C318.833 25.7583 316.196 17.8834 314.029 10.946C311.108 1.7587 300.746 -2.64746 292.079 1.66496C284.165 5.50864 280.962 14.9772 285.013 22.7583Z" fill="#FFE779"/>
<path d="M316.29 32.9766C317.703 32.9766 319.021 33.5391 319.775 34.664C321.282 36.8202 324.109 40.4764 327.123 42.6326C331.551 45.7263 347.66 48.445 348.979 50.7887C350.298 53.1325 346.435 53.8824 343.798 53.6012C341.066 53.4137 338.899 53.0387 338.334 54.1637C337.768 55.2887 338.522 59.9761 342.196 63.2573C345.776 66.5385 352.465 70.0071 352.747 73.0071C353.03 76.007 345.588 73.1009 342.29 71.0384C338.899 69.0697 338.051 68.6009 338.051 68.6009C338.051 68.6009 337.58 69.5384 334.942 70.4759C333.435 70.9446 331.834 69.7259 330.42 70.0072C329.007 70.2884 322.695 73.4758 319.681 71.9759C317.514 70.8509 312.71 59.9761 310.355 57.0699C308.659 54.9137 304.608 48.7263 302.63 45.6326C301.782 44.4139 301.782 42.7264 302.535 41.5077C304.137 38.414 308.282 33.2578 316.29 32.9766Z" fill="#F4C2C9"/>
<path d="M337.957 68.6952C337.957 68.6952 334.283 66.8202 332.776 65.3203C331.928 64.4765 331.269 63.2578 331.269 63.2578" stroke="#E26E85" stroke-width="1.8" stroke-miterlimit="10" stroke-linecap="round" stroke-linejoin="round"/>
<path d="M330.327 70.0077C330.327 70.0077 328.066 69.0702 327.218 68.414C326.37 67.664 325.146 65.6953 325.146 65.6953" stroke="#E26E85" stroke-width="1.8" stroke-miterlimit="10" stroke-linecap="round" stroke-linejoin="round"/>
<path d="M324.862 71.8827C324.862 71.8827 323.166 71.2265 322.224 70.3828C321.565 69.8203 320.246 68.1328 320.246 68.1328" stroke="#E26E85" stroke-width="1.8" stroke-miterlimit="10" stroke-linecap="round" stroke-linejoin="round"/>
<path d="M253.925 96.9141C254.207 96.1641 255.149 96.1641 255.432 96.9141C255.903 98.3203 256.468 99.8203 257.128 100.477C257.693 101.039 259.295 101.695 260.708 102.164C261.461 102.445 261.461 103.383 260.708 103.664C259.295 104.133 257.787 104.695 257.128 105.351C256.563 105.914 255.903 107.508 255.432 108.914C255.149 109.664 254.207 109.664 253.925 108.914C253.454 107.508 252.889 106.008 252.229 105.351C251.664 104.789 250.062 104.133 248.649 103.664C247.896 103.383 247.896 102.445 248.649 102.164C250.062 101.695 251.57 101.133 252.229 100.477C252.889 99.8203 253.454 98.3203 253.925 96.9141Z" fill="#6DAFA7"/>
<path d="M265.324 42.8203C265.512 42.2578 266.266 42.2578 266.454 42.8203C266.831 43.8515 267.208 44.9765 267.679 45.3515C268.15 45.8202 269.186 46.1952 270.223 46.5702C270.788 46.7577 270.788 47.5077 270.223 47.6952C269.186 48.0702 268.056 48.4452 267.679 48.9139C267.208 49.3827 266.831 50.4139 266.454 51.4451C266.266 52.0076 265.512 52.0076 265.324 51.4451C264.947 50.4139 264.57 49.2889 264.099 48.9139C263.628 48.4452 262.592 48.0702 261.556 47.6952C260.991 47.5077 260.991 46.7577 261.556 46.5702C262.592 46.1952 263.722 45.8202 264.099 45.3515C264.57 44.8828 265.041 43.7578 265.324 42.8203Z" fill="#6DAFA7"/>
<path d="M354.537 89.4141C354.725 88.8516 355.479 88.8516 355.667 89.4141C356.044 90.4453 356.421 91.5703 356.892 91.9453C357.363 92.3203 358.399 92.789 359.436 93.164C360.001 93.3515 360.001 94.1015 359.436 94.289C358.399 94.664 357.269 95.039 356.892 95.5077C356.421 95.9764 356.044 97.0077 355.667 98.0389C355.479 98.6014 354.725 98.6014 354.537 98.0389C354.16 97.0077 353.783 95.8827 353.312 95.5077C352.841 95.039 351.805 94.664 350.769 94.289C350.203 94.1015 350.203 93.3515 350.769 93.164C351.805 92.789 352.935 92.414 353.312 91.9453C353.783 91.5703 354.254 90.4453 354.537 89.4141Z" fill="#6DAFA7"/>
<path d="M274.839 73.3828C275.027 72.9141 275.592 72.9141 275.686 73.3828C275.969 74.2265 276.346 75.0703 276.628 75.4453C277.005 75.8203 277.853 76.1953 278.701 76.3827C279.172 76.5702 279.172 77.1327 278.701 77.2265C277.853 77.5077 277.005 77.8827 276.628 78.164C276.252 78.539 275.875 79.3827 275.686 80.2264C275.498 80.6952 274.933 80.6952 274.839 80.2264C274.556 79.3827 274.179 78.539 273.897 78.164C273.52 77.789 272.672 77.414 271.824 77.2265C271.353 77.039 271.353 76.4765 271.824 76.3827C272.672 76.1015 273.52 75.7265 273.897 75.4453C274.179 75.164 274.556 74.2265 274.839 73.3828Z" fill="#FFE779"/>
<path d="M362.073 114.445C362.356 113.695 363.298 113.695 363.581 114.445C364.052 115.852 364.617 117.351 365.276 118.008C365.841 118.57 367.443 119.226 368.856 119.695C369.61 119.976 369.61 120.914 368.856 121.195C367.443 121.664 365.936 122.226 365.276 122.883C364.711 123.445 364.052 125.039 363.581 126.445C363.298 127.195 362.356 127.195 362.073 126.445C361.602 125.039 361.037 123.539 360.377 122.883C359.812 122.32 358.211 121.664 356.798 121.195C356.044 120.914 356.044 119.976 356.798 119.695C358.211 119.226 359.718 118.664 360.377 118.008C360.943 117.351 361.602 115.852 362.073 114.445Z" fill="#FFE779"/>
<path d="M521.282 95.7891C521.282 95.7891 519.963 97.1015 522.413 107.039C524.862 116.976 530.42 124.57 530.42 124.57C530.42 124.57 537.58 118.57 535.413 108.258C533.341 97.9453 521.282 95.7891 521.282 95.7891Z" fill="#22272E"/>
<path d="M522.695 125.038C522.695 125.038 520.811 125.6 516.383 130.194C511.956 134.787 505.455 137.131 497.73 140.6C490.006 144.068 486.237 127.944 488.216 119.788C490.1 111.632 498.578 106.007 498.578 106.007L515.064 108.257C515.064 108.257 520.528 101.788 522.695 106.007C524.768 110.225 524.579 119.694 522.695 125.038Z" fill="#F4C2C9"/>
<path d="M508.564 154.945L452.418 167.788C449.968 168.351 447.519 166.851 446.954 164.413L431.033 95.7896C430.467 93.3522 431.975 90.9147 434.424 90.3522L490.571 77.5087C493.02 76.9462 495.47 78.4462 496.035 80.8836L511.861 149.507C512.521 151.945 511.014 154.382 508.564 154.945Z" fill="#22272E"/>
<path d="M484.919 97.1957L448.367 105.539C447.142 105.821 446.012 105.071 445.729 103.852C445.447 102.633 446.2 101.508 447.425 101.227L483.977 92.8833C485.202 92.602 486.332 93.352 486.615 94.5707C486.803 95.6957 486.049 96.9144 484.919 97.1957Z" fill="#FFE779"/>
<path d="M448.272 115.195L489.158 105.82" stroke="#63737A" stroke-width="1.8" stroke-miterlimit="10" stroke-linecap="round" stroke-linejoin="round"/>
<path d="M449.874 122.039L490.759 112.664" stroke="#63737A" stroke-width="1.8" stroke-miterlimit="10" stroke-linecap="round" stroke-linejoin="round"/>
<path d="M474.273 149.039L459.2 152.508C457.976 152.789 456.845 152.039 456.562 150.82L453.077 135.821C452.794 134.602 453.548 133.477 454.773 133.196L469.846 129.727C471.07 129.446 472.201 130.196 472.483 131.414L475.969 146.414C476.157 147.539 475.404 148.758 474.273 149.039Z" fill="#FFE779"/>
<path d="M478.042 127.758L493.398 124.195" stroke="#63737A" stroke-width="1.8" stroke-miterlimit="10" stroke-linecap="round" stroke-linejoin="round"/>
<path d="M479.737 135.164L495.187 131.695" stroke="#63737A" stroke-width="1.8" stroke-miterlimit="10" stroke-linecap="round" stroke-linejoin="round"/>
<path d="M481.434 142.664L490.76 140.508" stroke="#63737A" stroke-width="1.8" stroke-miterlimit="10" stroke-linecap="round" stroke-linejoin="round"/>
<path d="M473.048 83.6945L453.077 88.2882C451.664 88.5694 450.439 87.3507 450.722 85.9445L450.91 85.007C451.098 84.257 451.664 83.6945 452.417 83.507L471.541 79.1008C472.295 78.9133 473.048 79.1946 473.519 79.7571L474.085 80.507C475.027 81.7258 474.461 83.4132 473.048 83.6945Z" fill="#6DAFA7"/>
<path d="M516.383 102.537C516.383 102.537 514.028 103.756 509.506 102.537C504.984 101.318 504.231 100.193 499.52 98.9745C494.81 97.7557 488.31 99.0682 487.179 101.037C486.049 103.006 489.063 104.224 493.114 104.693C497.165 105.162 499.049 112.849 505.549 115.755C516.383 120.537 525.992 105.912 516.383 102.537Z" fill="#F4C2C9"/>
<path d="M487.179 101.039C486.049 103.008 489.063 104.227 493.114 104.695C497.165 105.164 499.049 112.851 505.549 115.758C507.81 116.789 509.977 116.883 511.955 116.508" stroke="#E26E85" stroke-width="1.8" stroke-miterlimit="10" stroke-linecap="round" stroke-linejoin="round"/>
<path d="M523.543 98.2266C523.543 98.2266 518.551 101.414 516.384 102.539C516.384 102.539 520.623 106.664 522.319 114.07C524.015 121.476 522.696 125.039 522.696 125.039C522.696 125.039 528.254 124.476 530.986 122.507C530.986 122.507 533.623 118.195 531.457 109.758C529.29 101.32 523.543 98.2266 523.543 98.2266Z" fill="white"/>
<path d="M582.705 86.7883C578.936 74.4135 564.24 69.3511 553.595 76.7572C547.377 81.0697 540.877 85.2883 535.696 88.1008C521.282 95.8819 521.282 95.8819 521.282 95.8819C521.282 95.8819 529.478 103.944 530.703 112.85C531.928 121.756 530.42 124.663 530.42 124.663C530.42 124.663 552.935 119.131 572.813 109.475C581.197 105.257 585.437 95.6944 582.705 86.7883Z" fill="#6DAFA7"/>
<path d="M528.536 117.82C528.536 117.164 528.065 116.695 527.406 116.695C526.746 116.695 526.275 117.164 526.275 117.82C526.275 118.477 526.746 118.945 527.406 118.945C528.065 118.945 528.536 118.477 528.536 117.82Z" fill="#22272E"/>
<path d="M402.111 290.879L468.715 283.098L467.585 295.097L454.49 296.972L453.171 299.41L402.111 290.879Z" fill="#63737A"/>
<path d="M453.171 298.098L470.505 229.756C471.071 227.412 473.143 225.537 475.498 225.256L564.523 212.037C566.407 211.756 568.009 213.537 567.443 215.412L549.262 276.63C548.602 278.692 546.906 280.38 544.74 280.848L456.28 301.379C454.396 301.754 452.7 300.067 453.171 298.098Z" fill="#22272E"/>
<path d="M521.282 254.411C520.34 257.786 517.231 261.067 514.122 261.723C511.108 262.379 509.318 260.129 510.26 256.754C511.202 253.379 514.311 250.098 517.419 249.442C520.434 248.786 522.224 251.036 521.282 254.411Z" fill="#63737A"/>
<path d="M454.49 301.097C454.207 300.91 415.583 295.848 404.843 294.348C403.242 294.16 402.111 292.848 402.111 291.254V290.879L454.49 296.973V301.097Z" fill="#22272E"/>
<path d="M535.507 172.285H564.522C565.841 172.285 566.972 173.41 566.878 174.816L565.37 192.91C565.276 194.504 564.051 195.722 562.45 195.91L533.246 199.097C531.833 199.285 530.608 198.066 530.702 196.66L532.304 175.379C532.304 173.598 533.811 172.285 535.507 172.285Z" stroke="#6DAFA7" stroke-width="1.8" stroke-miterlimit="10" stroke-linecap="round" stroke-linejoin="round"/>
<path d="M533.623 172.941L550.58 182.035C551.711 182.597 553.029 182.504 554.066 181.754L566.124 172.941" stroke="#6DAFA7" stroke-width="1.8" stroke-miterlimit="10" stroke-linecap="round" stroke-linejoin="round"/>
<path d="M372.436 81.0703L369.422 84.3515C368.951 84.8202 368.951 85.664 369.422 86.2265C369.893 86.6952 370.552 86.7889 371.117 86.5077L374.697 84.3515L372.436 81.0703Z" fill="#22272E"/>
<path d="M399.944 89.0391L400.792 93.4452C400.886 94.1015 400.509 94.8515 399.85 95.0389C399.19 95.2264 398.531 94.9452 398.248 94.289L396.364 90.539L399.944 89.0391Z" fill="#22272E"/>
<path d="M389.864 92.8821C401.206 92.8821 410.401 83.7321 410.401 72.445C410.401 61.1578 401.206 52.0078 389.864 52.0078C378.522 52.0078 369.327 61.1578 369.327 72.445C369.327 83.7321 378.522 92.8821 389.864 92.8821Z" fill="#6DAFA7"/>
<path d="M396.203 83.9693C402.586 80.4777 404.916 72.4979 401.407 66.1459C397.899 59.7939 389.88 57.4752 383.497 60.9669C377.114 64.4585 374.784 72.4383 378.293 78.7903C381.801 85.1422 389.82 87.461 396.203 83.9693Z" fill="#FFE779"/>
<path d="M393.538 77.1326L389.864 72.4452L391.843 65.8828" stroke="#63737A" stroke-width="1.8" stroke-miterlimit="10" stroke-linecap="round" stroke-linejoin="round"/>
<path d="M376.77 52.6648C376.205 52.8523 375.545 52.5711 375.357 51.9148C374.886 49.1961 376.393 46.4774 379.125 45.4462C381.857 44.415 384.777 45.4462 386.285 47.7899C386.662 48.3524 386.379 49.0086 385.72 49.2899L376.77 52.6648Z" fill="#6DAFA7"/>
<path d="M411.532 62.7881C411.909 63.2568 412.663 63.3506 413.134 62.8818C415.018 60.8194 415.206 57.7257 413.417 55.382C411.627 53.0382 408.612 52.382 406.163 53.6007C405.597 53.882 405.409 54.632 405.786 55.1007L411.532 62.7881Z" fill="#6DAFA7"/>
<path d="M399.191 50.5067L393.821 49.0067C392.973 48.7255 392.408 47.8817 392.691 46.9442C392.973 46.1005 393.821 45.538 394.763 45.8193L400.133 47.3192C400.981 47.6005 401.546 48.4442 401.263 49.3817C400.981 50.2254 400.039 50.7879 399.191 50.5067Z" fill="#6DAFA7"/>
<path d="M394.805 48.1968L393.333 53.2383L397.223 54.363L398.695 49.3215L394.805 48.1968Z" fill="#6DAFA7"/>
<path d="M170.647 208.755L171.495 217.379C171.589 218.223 171.118 219.067 170.27 219.442C167.633 220.661 166.031 223.379 166.314 226.192L167.35 235.754C167.633 238.66 169.799 241.004 172.625 241.567C173.473 241.754 174.133 242.504 174.227 243.348L175.075 251.973C175.263 253.566 173.568 254.691 172.154 253.941L170.082 252.91C165.56 250.66 162.451 246.16 161.98 241.098L160.002 222.067C159.437 217.004 161.603 212.036 165.56 208.848L167.444 207.348C168.575 206.411 170.459 207.161 170.647 208.755Z" fill="#22272E"/>
<path d="M214.642 26.6017C216.337 38.039 209.931 48.4451 199.192 49.9451C186.851 51.6325 173.945 41.039 172.249 26.4142C170.647 12.0707 180.727 2.22715 193.068 3.91462C203.902 5.4146 213.04 15.3519 214.642 26.6017Z" fill="#F8AB5D"/>
<path d="M219.069 24.6323C220.765 36.4446 214.265 47.2256 203.149 48.7256C190.336 50.5068 177.053 39.5383 175.358 24.4448C173.662 9.63256 184.119 -0.492267 196.837 1.1952C207.953 2.78892 217.374 13.1012 219.069 24.6323Z" fill="#FFE779"/>
<path d="M203.62 18.0694C203.997 20.9756 202.207 23.2256 199.569 23.2256C196.837 23.2256 194.199 20.6944 193.822 17.6944C193.446 14.6945 195.424 12.4445 198.156 12.632C200.794 12.8195 203.243 15.257 203.62 18.0694Z" fill="#22272E"/>
<path d="M206.163 36.4426L196.46 37.0988C194.105 37.2863 191.938 35.3176 191.561 32.6927C190.807 26.974 194.576 22.4741 199.569 22.5678C204.279 22.6616 208.518 26.8803 209.272 31.9427C209.46 34.3801 208.141 36.3488 206.163 36.4426Z" fill="#22272E"/>
<path d="M509.035 193.661C507.622 192.161 505.267 192.067 503.76 193.38C502.252 194.786 502.158 197.13 503.477 198.63C504.796 200.13 507.245 200.223 508.752 198.911C510.354 197.505 510.448 195.161 509.035 193.661Z" fill="#22272E"/>
<path d="M504.136 185.132L503.477 184.382C501.31 182.038 497.636 181.85 495.187 184.007C492.831 186.163 492.643 189.819 494.81 192.256L495.469 193.006C496.223 193.85 496.788 194.788 497.071 195.913C497.259 196.756 497.542 197.694 497.73 198.631C498.201 200.6 500.651 201.35 502.252 199.944L506.397 196.194L510.542 192.444C512.05 191.038 511.579 188.6 509.6 187.85C508.658 187.569 507.81 187.194 506.962 186.913C505.832 186.538 504.89 185.975 504.136 185.132Z" fill="#6DAFA7"/>
<path d="M429.337 199.848C429.337 199.848 431.598 210.535 429.337 223.472L459.86 216.91C459.86 216.91 453.077 205.66 451.287 195.348L429.337 199.848Z" fill="#22272E"/>
<path d="M429.996 204.723L452.417 200.035" stroke="#63737A" stroke-width="1.8" stroke-miterlimit="10" stroke-linecap="round" stroke-linejoin="round"/>
<path d="M435.271 209.129L449.779 205.66" stroke="#63737A" stroke-width="1.8" stroke-miterlimit="10" stroke-linecap="round" stroke-linejoin="round"/>
<path d="M435.555 213.629L445.258 211.379" stroke="#63737A" stroke-width="1.8" stroke-miterlimit="10" stroke-linecap="round" stroke-linejoin="round"/>
<path d="M501.499 302.973L522.036 298.379C522.036 298.379 522.319 307.754 536.826 313.285C536.826 313.285 520.717 325.472 515.724 328.66C515.818 328.566 503.76 322.379 501.499 302.973Z" fill="#6DAFA7"/>
<path d="M502.724 309.16L523.355 302.504" stroke="#22272E" stroke-width="1.8" stroke-miterlimit="10" stroke-linecap="round" stroke-linejoin="round"/>
<path d="M509.507 313.004L522.413 307.098" stroke="#22272E" stroke-width="1.8" stroke-miterlimit="10" stroke-linecap="round" stroke-linejoin="round"/>
<path d="M511.673 316.941L524.579 310.004" stroke="#22272E" stroke-width="1.8" stroke-miterlimit="10" stroke-linecap="round" stroke-linejoin="round"/>
<path d="M514.499 320.691L521.941 316.191" stroke="#22272E" stroke-width="1.8" stroke-miterlimit="10" stroke-linecap="round" stroke-linejoin="round"/>
<path d="M175.735 156.82C175.735 156.82 173.662 157.383 170.365 157.008L172.061 154.383C168.387 154.476 159.531 149.695 158.589 145.289C158.495 144.727 158.495 144.164 158.683 143.789V143.695C160.097 140.883 167.539 141.539 173.003 146.883C179.503 153.164 175.735 156.82 175.735 156.82Z" fill="#B8D8C7"/>
<path d="M172.154 154.383L170.459 157.008C168.386 156.726 165.748 156.07 162.922 154.476C159.342 152.508 157.647 149.976 156.799 148.008C157.835 145.664 158.589 144.07 158.777 143.695C158.589 144.164 158.589 144.633 158.683 145.195C159.625 149.695 168.48 154.476 172.154 154.383Z" fill="#6DAFA7"/>
<path d="M119.776 182.789C119.776 182.789 124.109 184.757 128.16 184.195C132.211 183.632 140.124 181.382 141.726 182.226C143.327 183.07 146.059 183.164 145.211 185.882C144.458 188.601 142.762 191.789 139.182 191.976C135.602 192.257 132.022 194.976 126.087 193.289C120.153 191.601 116.667 190.757 116.478 188.414C116.384 185.976 119.776 182.789 119.776 182.789Z" fill="#F4C2C9"/>
<path d="M175.734 156.818C174.227 161.224 154.538 187.005 145.211 200.505C135.885 214.005 120.058 252.254 112.145 250.66C104.232 249.066 94.4342 241.379 96.1299 236.973C97.9198 232.567 117.891 220.005 133.153 198.349C148.414 176.693 148.037 161.693 152.654 149.412C154.632 144.162 156.045 144.537 156.045 144.537C156.045 144.537 155.951 146.037 156.704 148.1C157.458 150.068 159.154 152.599 162.828 154.568C165.654 156.162 168.292 156.818 170.364 157.099C173.661 157.474 175.734 156.818 175.734 156.818Z" fill="white"/>
<path d="M141.82 195.633C141.82 195.633 145.589 188.695 146.531 184.477" stroke="#B8D8C7" stroke-width="1.8" stroke-miterlimit="10" stroke-linecap="round" stroke-linejoin="round"/>
<path d="M145.4 196.57C145.4 196.57 147.944 191.789 149.263 190.57" stroke="#B8D8C7" stroke-width="1.8" stroke-miterlimit="10" stroke-linecap="round" stroke-linejoin="round"/>
<path d="M131.551 214.754C131.551 214.754 129.762 219.441 127.783 222.723" stroke="#B8D8C7" stroke-width="1.8" stroke-miterlimit="10" stroke-linecap="round" stroke-linejoin="round"/>
<path d="M126.276 213.441C126.276 213.441 122.79 218.879 116.479 223.941" stroke="#B8D8C7" stroke-width="1.8" stroke-miterlimit="10" stroke-linecap="round" stroke-linejoin="round"/>
<path d="M134.284 188.601C134.284 188.601 140.125 192.351 143.422 193.664C146.814 194.976 151.147 193.57 151.524 193.57C151.901 193.57 153.691 196.382 152.089 198.351C150.488 200.32 148.698 200.601 148.509 201.257C148.321 201.913 148.792 205.663 147.756 206.976C146.813 208.288 144.741 209.038 144.082 209.882C143.516 210.726 142.763 214.944 141.726 215.601C140.69 216.257 139.371 218.413 136.733 218.788C134.096 219.163 123.733 215.038 114.124 207.632C108.001 202.945 104.044 201.257 104.044 201.257C104.044 201.257 108.283 182.789 116.008 184.476C123.827 186.164 134.284 188.601 134.284 188.601Z" fill="#F4C2C9"/>
<path d="M134.284 188.602C134.284 188.602 140.125 192.351 143.422 193.664C146.814 194.976 151.147 193.57 151.524 193.57" stroke="#E26E85" stroke-width="1.8" stroke-miterlimit="10" stroke-linecap="round" stroke-linejoin="round"/>
<path d="M111.015 176.599C111.015 176.599 112.051 175.755 113.276 176.692C114.501 177.63 119.117 181.286 119.682 182.786C120.341 184.286 117.138 193.567 112.145 199.286C107.247 205.004 104.515 205.004 104.232 204.911C103.949 204.817 96.9782 201.629 96.0362 200.411C95.0941 199.192 95.4709 197.88 95.4709 197.88C95.4709 197.88 108.754 176.505 111.015 176.599Z" fill="#6DAFA7"/>
<path d="M50.0636 144.163C43.6576 151.944 44.4112 163.475 51.8535 170.319C54.0202 172.288 56.4696 174.538 59.2016 176.975C73.8977 190.1 96.6956 198.256 96.6956 198.256C109.131 192.537 111.015 176.6 111.015 176.6C99.8044 169.569 88.6881 156.444 80.4921 145.007C73.1441 134.882 58.0711 134.507 50.0636 144.163Z" fill="#FFE779"/>
<path d="M148.603 201.352C148.603 201.352 146.06 202.57 144.458 202.758C142.857 202.945 140.596 202.758 140.596 202.758" stroke="#E26E85" stroke-width="1.8" stroke-miterlimit="10" stroke-linecap="round" stroke-linejoin="round"/>
<path d="M144.647 209.598C144.647 209.598 143.516 210.535 141.915 210.816C140.313 211.004 138.994 210.254 138.994 210.254" stroke="#E26E85" stroke-width="1.8" stroke-miterlimit="10" stroke-linecap="round" stroke-linejoin="round"/>
<path d="M140.972 216.441C140.972 216.441 138.711 217.191 137.486 216.066" stroke="#E26E85" stroke-width="1.8" stroke-miterlimit="10" stroke-linecap="round" stroke-linejoin="round"/>
<path d="M393.915 309.348C375.921 309.723 347.659 316.473 330.514 323.411C313.463 330.348 301.781 336.817 301.781 336.817C301.781 336.817 305.832 334.567 310.637 343.754C315.441 352.941 313.745 363.629 313.745 363.629C316.195 362.972 374.602 361.191 393.255 358.754C411.908 356.316 433.481 349.566 432.162 331.473C430.843 313.379 414.828 308.411 392.878 304.38C370.834 300.348 358.682 302.036 357.363 301.661C356.044 301.38 351.805 299.598 349.544 296.88C347.283 294.161 344.927 286.755 344.927 286.755C344.927 286.755 288.027 283.192 282.281 292.755C276.628 302.317 302.346 329.692 302.346 329.692L393.915 309.348Z" fill="#22272E"/>
<path d="M258.258 285.63C258.258 285.63 255.15 292.38 254.019 294.817C252.889 297.255 226.794 298.192 215.112 298.38C203.431 298.567 180.538 303.255 178.749 320.036C176.676 339.16 192.785 348.066 221.518 350.129C253.831 352.472 283.788 351.722 290.1 352.379C296.412 353.035 313.84 345.254 315.818 338.035C317.797 330.817 345.211 325.285 345.211 325.285C345.211 325.285 351.24 295.286 341.348 289.286C331.457 283.192 258.258 285.63 258.258 285.63Z" fill="#22272E"/>
<path d="M315.818 331.285C315.818 331.285 262.309 300.629 219.822 302.411" stroke="#63737A" stroke-width="1.8" stroke-miterlimit="10" stroke-linecap="round" stroke-linejoin="round"/>
<path d="M301.781 336.911C301.781 336.911 299.143 338.036 300.651 347.035C302.158 356.035 310.448 365.598 313.745 363.723C317.043 361.848 315.347 345.535 311.579 340.098C307.905 334.754 301.781 336.911 301.781 336.911Z" fill="#22272E"/>
<path d="M295.658 339.911C295.658 339.911 290.476 346.192 288.121 347.973C285.766 349.754 275.215 350.504 271.353 356.504C267.49 362.504 276.345 376.285 283.505 374.035C281.527 375.254 279.831 376.379 278.512 377.222C272.106 381.535 260.425 388.003 252.135 378.535C245.163 370.472 247.613 360.723 252.7 354.254C257.787 347.879 270.882 347.035 273.896 346.192C276.911 345.254 283.788 340.379 286.802 338.598C289.346 337.098 291.23 339.067 295.658 339.911Z" fill="#6DAFA7"/>
<path d="M313.934 360.629C313.557 360.722 306.774 361.847 303.948 362.41C301.687 362.878 290.948 369.16 283.411 373.941C276.251 376.191 267.396 362.41 271.258 356.41C275.121 350.41 285.672 349.66 288.027 347.879C290.382 346.098 295.564 339.816 295.564 339.816C296.223 339.91 296.977 340.004 297.73 340.098C303.76 340.566 306.868 338.504 306.868 338.504C307.999 339.535 309.224 341.223 310.448 343.66C313.84 349.941 314.122 356.785 313.934 360.629Z" fill="#F4C2C9"/>
<path d="M393.915 309.348C375.921 309.723 347.66 316.473 330.514 323.41C313.463 330.347 301.781 336.816 301.781 336.816" stroke="#63737A" stroke-width="1.8" stroke-miterlimit="10" stroke-linecap="round" stroke-linejoin="round"/>
<path d="M182.611 310.662C183.741 310.1 185.437 309.818 187.792 310.568C192.879 312.256 194.575 323.412 192.031 330.349C189.488 337.38 183.835 337.005 181.951 335.037" stroke="#63737A" stroke-width="1.8" stroke-miterlimit="10" stroke-linecap="round" stroke-linejoin="round"/>
<path d="M428.865 320.693C428.865 320.693 424.155 315.35 418.597 322.006C412.473 329.224 415.676 341.412 420.575 344.318C425.568 347.224 428.3 344.318 428.3 344.318" stroke="#63737A" stroke-width="1.8" stroke-miterlimit="10" stroke-linecap="round" stroke-linejoin="round"/>
<path d="M223.214 188.41C223.214 188.973 222.743 189.441 222.178 189.441C221.613 189.441 221.142 188.973 221.142 188.41C221.142 187.848 221.613 187.379 222.178 187.379C222.743 187.379 223.214 187.848 223.214 188.41Z" stroke="#22272E" stroke-width="1.8" stroke-miterlimit="10" stroke-linecap="round" stroke-linejoin="round"/>
<path d="M243.75 170.879C241.772 177.441 239.7 180.254 239.888 186.254C227.924 189.722 220.01 182.316 220.01 182.316C220.576 179.785 220.858 177.816 220.482 176.598C219.351 172.098 213.228 170.035 208.988 164.41C204.749 158.785 204.372 148.848 206.445 147.629C207.387 147.067 208.329 147.254 209.742 151.942C210.59 154.661 211.815 157.098 212.097 157.473C210.119 152.973 209.271 138.161 214.735 140.411C216.525 141.161 214.452 144.348 216.619 150.067C218.597 155.504 222.271 157.567 222.271 157.567C222.271 157.567 221.612 153.161 224.061 149.692C226.134 146.786 231.409 143.504 232.351 146.598C233.388 149.598 228.583 150.723 228.206 154.567C227.641 159.16 232.822 162.723 236.308 159.723C239.794 156.723 237.815 153.348 236.308 151.192C234.801 149.129 232.446 146.411 234.141 145.192C235.837 144.067 240.076 145.379 243.091 150.536C246.011 155.598 245.729 164.317 243.75 170.879Z" fill="#F4C2C9"/>
<path d="M262.875 238.097C262.875 238.097 241.678 264.721 227.736 270.721C213.793 276.721 204.373 272.502 201.641 257.971C198.909 243.44 207.576 217.472 211.344 207.91C214.076 200.785 218.409 189.535 220.011 182.41C220.011 182.41 228.018 189.723 239.888 186.348C239.983 192.066 237.345 213.16 237.062 215.128C237.156 214.472 238.287 211.378 246.2 200.316C255.338 187.66 264.476 182.129 264.476 182.129C264.476 182.129 272.201 185.785 274.462 202.941C276.629 220.191 262.875 238.097 262.875 238.097Z" fill="#6DAFA7"/>
<path d="M237.062 215.129C237.062 215.129 236.214 239.128 233.105 246.91" stroke="#22272E" stroke-width="1.8" stroke-miterlimit="10" stroke-linecap="round" stroke-linejoin="round"/>
<path d="M222.178 157.66C222.178 157.66 222.555 160.285 223.685 161.785" stroke="#E26E85" stroke-width="1.8" stroke-miterlimit="10" stroke-linecap="round" stroke-linejoin="round"/>
<path d="M217.844 189.816C217.844 189.816 223.213 197.504 239.323 195.254" stroke="#22272E" stroke-width="1.8" stroke-miterlimit="10" stroke-linecap="round" stroke-linejoin="round"/>
<path d="M204.373 266.126C204.373 266.126 201.923 257.783 210.967 255.814C220.105 253.845 231.033 266.876 224.062 272.033" stroke="#22272E" stroke-width="1.8" stroke-miterlimit="10" stroke-linecap="round" stroke-linejoin="round"/>
<path d="M212.003 157.66C212.003 157.66 213.039 160.004 215.3 162.254C216.242 163.191 217.561 164.129 218.126 165.348" stroke="#E26E85" stroke-width="1.8" stroke-miterlimit="10" stroke-linecap="round" stroke-linejoin="round"/>
<path d="M324.485 100.944C335.225 103.663 340.312 109.756 339.841 125.131C339.37 140.506 337.297 146.037 344.645 154.568C351.994 163.006 353.972 175.099 340.029 182.693C326.087 190.286 295.564 192.255 280.397 182.693C265.23 173.13 263.44 162.912 267.962 152.881C272.484 142.85 284.542 136.287 281.904 129.069C279.266 121.756 282.469 129.725 282.469 129.725C282.469 129.725 274.556 124.006 275.216 112.569C275.781 101.132 289.912 96.8192 297.26 96.4442C301.028 96.2567 305.079 98.6004 310.637 99.5379C316.195 100.288 321.753 100.288 324.485 100.944Z" fill="#22272E"/>
<path d="M301.97 173.88C301.97 173.88 281.621 175.005 269.751 179.224C257.881 183.443 260.048 192.817 258.541 202.661C256.939 212.504 247.33 222.536 252.229 235.942C257.128 249.348 261.932 256.941 259.389 267.254C256.939 277.566 254.49 282.722 254.867 285.628C255.338 288.534 268.809 297.44 273.991 299.222C279.172 301.003 289.252 293.878 289.252 293.878C289.252 293.878 294.433 300.628 301.97 302.128C309.506 303.722 340.029 295.847 347 288.066C347 288.066 342.478 279.347 342.29 268.847C342.102 258.347 348.225 245.316 350.486 238.098C352.653 230.879 365.465 203.036 360.472 193.755C356.892 187.099 330.137 172.099 301.97 173.88Z" fill="#FFE779"/>
<path d="M360.849 194.785C360.849 194.785 370.552 204.441 378.183 220.097C378.183 220.097 378.654 187.66 379.313 185.41C379.313 185.41 389.393 187.848 399.567 183.816C399.567 183.816 402.299 208.847 406.35 227.878C410.401 246.909 414.923 275.315 401.169 279.065C387.509 282.908 374.886 274.19 358.211 251.971C341.631 229.847 342.95 218.691 342.95 213.066C342.855 206.41 351.899 189.348 360.849 194.785Z" fill="#6DAFA7"/>
<path d="M378.182 220.191C378.182 220.191 377.523 240.347 379.972 253.097" stroke="#22272E" stroke-width="1.8" stroke-miterlimit="10" stroke-linecap="round" stroke-linejoin="round"/>
<path d="M378.748 194.223C378.748 194.223 390.806 197.973 400.415 191.879" stroke="#22272E" stroke-width="1.8" stroke-miterlimit="10" stroke-linecap="round" stroke-linejoin="round"/>
<path d="M396.741 189.441C396.741 190.004 396.27 190.473 395.705 190.473C395.14 190.473 394.669 190.004 394.669 189.441C394.669 188.879 395.14 188.41 395.705 188.41C396.365 188.41 396.741 188.879 396.741 189.441Z" stroke="#22272E" stroke-width="1.8" stroke-miterlimit="10" stroke-linecap="round" stroke-linejoin="round"/>
<path d="M398.814 184.193C398.814 184.193 397.872 177.537 402.394 175.38C406.916 173.224 411.061 174.255 415.677 170.88C420.293 167.599 428.112 156.818 427.83 154.474C427.453 152.131 425.851 153.162 422.743 155.693C419.728 158.224 418.221 158.787 418.221 158.787C418.221 158.787 420.105 152.412 419.257 147.725C418.315 143.037 415.206 142.475 414.452 142.943C413.699 143.412 414.452 145.381 414.264 149.131C414.076 152.787 412.945 155.974 409.648 158.318C409.648 158.318 410.401 155.318 408.988 151.756C407.481 148.193 404.938 145.85 402.959 146.412C400.981 146.975 401.64 148.475 402.582 150.537C403.619 152.6 405.032 156.349 401.075 160.287C397.118 164.224 390.712 160.287 392.879 155.037C395.046 149.787 398.343 148.568 400.039 147.162C401.735 145.756 401.263 143.225 397.684 143.787C394.104 144.35 387.98 148.662 384.401 153.443C380.821 158.131 379.785 164.693 379.69 171.068C379.596 177.443 379.313 185.599 379.313 185.599C379.313 185.599 381.669 188.505 386.85 188.505C392.031 188.411 398.814 186.536 398.814 184.193Z" fill="#F4C2C9"/>
<path d="M418.22 158.879C418.22 158.879 416.618 163.285 414.357 166.848" stroke="#E26E85" stroke-width="1.8" stroke-miterlimit="10" stroke-linecap="round" stroke-linejoin="round"/>
<path d="M409.554 158.316C409.554 158.316 409.177 162.066 406.539 165.629" stroke="#E26E85" stroke-width="1.8" stroke-miterlimit="10" stroke-linecap="round" stroke-linejoin="round"/>
<path d="M387.321 278.69C387.321 278.69 384.966 274.94 390.712 269.221C396.459 263.503 408.705 264.159 409.082 270.065" stroke="#22272E" stroke-width="1.8" stroke-miterlimit="10" stroke-linecap="round" stroke-linejoin="round"/>
<path d="M295.847 172.568C295.847 172.568 290.571 172.287 287.274 179.412C283.977 186.537 284.919 201.161 288.499 203.411C292.078 205.661 301.687 196.005 301.687 196.005C301.687 196.005 309.789 206.88 315.63 206.411C321.471 205.943 328.819 195.537 328.348 184.099C327.877 172.662 323.166 171.349 320.623 171.068C318.174 170.599 295.847 172.568 295.847 172.568Z" fill="white"/>
<path d="M301.688 195.912C301.688 195.912 283.129 216.349 282.941 220.193C282.752 224.037 289.064 225.255 290.76 224.412C292.455 223.474 303.572 195.631 301.688 195.912Z" fill="white"/>
<path d="M301.499 198.444C301.499 198.444 304.702 221.131 306.775 224.693C308.847 228.256 315.442 222.912 314.688 219.819C313.935 216.725 304.985 198.631 301.688 196.006C298.391 193.288 301.499 198.444 301.499 198.444Z" fill="white"/>
<path d="M324.486 152.601C324.486 152.601 322.413 165.445 323.92 175.101C323.92 175.101 314.971 194.881 301.782 194.881C295.282 194.881 293.209 181.569 294.34 176.319L296.318 161.695C296.318 161.695 309.507 139.007 324.486 152.601Z" fill="#F4C2C9"/>
<path d="M313.652 166.191C307.999 169.566 301.782 171.254 295.187 169.941L294.434 175.473C301.593 174.066 308.847 172.004 313.652 166.191Z" fill="#E26E85"/>
<path d="M283.411 124.943C283.411 124.943 283.882 132.255 282.657 144.161C281.433 156.067 281.904 163.848 292.078 168.911C302.252 173.973 318.738 169.379 324.767 154.942C330.797 140.505 338.804 113.037 317.137 108.912C295.469 104.787 283.128 109.943 283.411 124.943Z" fill="#F4C2C9"/>
<path d="M298.484 115.474C298.484 115.474 302.629 129.349 311.861 132.911C321.188 136.474 319.681 145.099 324.297 144.067C328.913 143.036 332.493 139.286 335.601 142.942C338.71 146.505 338.993 114.443 323.072 108.912C307.151 103.381 290.288 103.099 285.295 108.162C280.397 113.224 282.092 129.443 282.092 129.443C282.092 129.443 292.267 127.099 298.484 115.474Z" fill="#22272E"/>
<path d="M325.333 144.161C325.333 144.161 327.499 138.817 332.116 139.755C336.637 140.692 336.355 155.223 324.579 154.473" fill="#F4C2C9"/>
<path d="M292.361 139.191C292.926 140.41 292.926 141.816 292.549 143.129C292.361 143.785 292.078 144.441 291.701 145.004C291.513 145.285 291.324 145.566 291.136 145.848C291.042 146.035 290.853 146.316 290.759 146.504C290.382 147.347 290.571 148.285 291.136 149.222C291.795 150.066 292.737 150.91 293.962 151.191C293.303 151.472 292.643 151.379 291.984 151.191C291.324 151.004 290.665 150.629 290.194 150.16C289.629 149.691 289.252 149.035 288.969 148.285C288.781 147.535 288.875 146.691 289.158 145.941C289.346 145.566 289.534 145.285 289.723 145.004C289.911 144.723 290.1 144.535 290.288 144.254C290.665 143.785 290.947 143.316 291.23 142.754C291.795 141.629 292.266 140.504 292.361 139.191Z" fill="#22272E"/>
<path d="M299.332 157.473C299.332 157.473 304.042 158.785 306.869 154.004" stroke="#22272E" stroke-width="1.8" stroke-miterlimit="10" stroke-linecap="round" stroke-linejoin="round"/>
<path d="M305.361 139.191C305.361 139.191 305.738 141.254 309.318 141.629C312.333 142.004 313.746 139.566 313.746 139.566" stroke="#22272E" stroke-width="1.8" stroke-miterlimit="10" stroke-linecap="round" stroke-linejoin="round"/>
<path d="M290.665 137.691C290.665 137.691 287.839 139.941 285.578 137.129" stroke="#22272E" stroke-width="1.8" stroke-miterlimit="10" stroke-linecap="round" stroke-linejoin="round"/>
<path d="M293.303 128.785C293.491 127.566 292.078 125.504 290.194 124.941C288.31 124.379 285.295 127.004 285.578 128.129C285.955 129.254 287.745 127.566 289.441 127.754C290.948 127.941 293.115 129.816 293.303 128.785Z" fill="#22272E"/>
<path d="M315.819 130.847C316.007 129.629 314.594 127.566 312.71 127.004C310.826 126.441 307.811 129.066 308.094 130.191C308.471 131.316 310.26 129.629 311.956 129.816C313.558 130.004 315.724 131.879 315.819 130.847Z" fill="#22272E"/>
<path d="M331.739 144.16C330.797 144.441 330.043 144.91 329.761 145.472C329.666 145.753 329.572 146.035 329.572 146.41C329.572 146.597 329.572 146.785 329.572 146.972C329.572 147.253 329.572 147.441 329.572 147.722C329.572 148.285 329.478 148.847 329.29 149.316C329.101 149.878 328.63 150.441 328.065 150.628C326.934 151.097 325.898 150.816 324.956 150.347C325.898 150.066 326.84 149.878 327.311 149.41C327.782 149.035 327.876 148.378 327.876 147.535C327.876 147.347 327.876 147.16 327.876 146.878C327.876 146.597 327.876 146.316 327.876 146.035C327.971 145.472 328.159 144.816 328.63 144.441C329.666 143.785 330.891 143.785 331.739 144.16Z" fill="#22272E"/>
<path d="M284.071 146.879C288.701 146.879 292.455 142.807 292.455 137.785C292.455 132.763 288.701 128.691 284.071 128.691C279.44 128.691 275.687 132.763 275.687 137.785C275.687 142.807 279.44 146.879 284.071 146.879Z" stroke="#22272E" stroke-width="1.8" stroke-miterlimit="10" stroke-linecap="round" stroke-linejoin="round"/>
<path d="M317.843 141.926C318.702 136.661 315.11 131.701 309.82 130.847C304.53 129.993 299.546 133.568 298.687 138.832C297.829 144.096 301.421 149.056 306.711 149.91C312.001 150.765 316.985 147.19 317.843 141.926Z" stroke="#22272E" stroke-width="1.8" stroke-miterlimit="10" stroke-linecap="round" stroke-linejoin="round"/>
<path d="M292.455 138.535C292.455 138.535 293.962 136.941 298.673 138.91" stroke="#22272E" stroke-width="1.8" stroke-miterlimit="10" stroke-linecap="round" stroke-linejoin="round"/>
<path d="M317.985 140.41L327.218 141.254" stroke="#22272E" stroke-width="1.8" stroke-miterlimit="10" stroke-linecap="round" stroke-linejoin="round"/>
<path d="M329.478 152.223L326.275 157.754C325.898 158.504 326.369 159.348 327.217 159.348H333.623C334.471 159.348 334.942 158.504 334.565 157.754L331.362 152.223C330.891 151.566 329.855 151.566 329.478 152.223Z" fill="#FFE779"/>
<path d="M460.707 339.812L462.968 360.625C462.968 362.125 470.787 363.25 480.396 363.25C490.005 363.25 497.824 362.031 497.824 360.625L500.085 339.812H460.707Z" fill="#22272E"/>
<path d="M500.085 339.812C500.085 341.5 491.23 342.812 480.396 342.812C469.562 342.812 460.707 341.5 460.707 339.812C460.707 338.125 469.562 336.812 480.396 336.812C491.324 336.906 500.085 338.219 500.085 339.812Z" fill="#FFE779"/>
<path d="M475.121 339.814C475.121 339.814 464.57 335.689 465.7 327.627C466.925 319.47 474.65 336.251 476.628 333.72C478.606 331.189 476.063 318.908 480.396 317.783C484.824 316.752 483.599 333.908 483.599 333.908C483.599 333.908 488.027 331.751 490.759 328.564C493.491 325.377 497.447 332.501 486.237 339.814C486.143 339.814 481.338 342.251 475.121 339.814Z" fill="#6DAFA7"/>
<path d="M568.102 334.379C568.102 337.191 565.841 339.441 563.015 339.441C560.189 339.441 557.928 337.191 557.928 334.379C557.928 331.566 560.189 329.316 563.015 329.316C565.747 329.316 568.102 331.66 568.102 334.379Z" fill="#FFE779"/>
<path d="M205.503 352.473C202.96 353.129 200.322 354.348 197.967 356.41C193.916 359.879 187.416 362.316 180.538 361.941C173.944 361.66 166.973 358.754 161.697 351.723C184.589 354.16 205.503 352.473 205.503 352.473Z" fill="white"/>
<path d="M180.444 362.035C163.864 362.316 140.689 362.035 133.529 361.941C125.239 362.597 115.913 359.41 109.695 349.191C109.695 349.191 115.819 350.129 131.551 350.223C147.284 350.316 159.813 349.191 159.813 349.191C160.378 350.129 160.943 350.973 161.509 351.816C166.878 358.754 173.85 361.66 180.444 362.035Z" fill="#22272E"/>
</g>
</svg>
